<?xml version="1.0" encoding="utf-8"?>
<!-- Generator: Adobe Illustrator 22.1.0, SVG Export Plug-In . SVG Version: 6.00 Build 0)  -->
<svg version="1.1" id="Layer_1" xmlns="http://www.w3.org/2000/svg" xmlns:xlink="http://www.w3.org/1999/xlink" x="0px" y="0px"
	 viewBox="0 0 612 511.8" style="enable-background:new 0 0 612 511.8;" xml:space="preserve">
<style type="text/css">
	.st0{fill:#039144;}
	.st1{fill:#050907;}
	.st2{fill:#F9F1F2;}
</style>
<g>
	<polygon class="st0" points="403.1,185.6 408.4,185.6 413.6,196.8 410,201.3 407.8,204.5 403.7,207.2 400.2,207.2 398.7,204.3 
		401.7,200.9 405.9,196.4 403.8,190.8 	"/>
	<path class="st0" d="M370.8,179.6c-1.5-6.3-8-10.2-15.3-9l-4-4.8L256,193.3l4.4,1.6c-9.4,2.2-18.6,4.9-27.8,7.7
		c-8.8,2.7-16.8,7.6-22.3,17.4c15.9,1.5,30.3,4.7,44.3,9.8c2.2,0.8,4.4,1.6,6.6,2.4l0,0l24.2,9.1l5.4-2.5l-24.1-13.7
		c0.1-3.1,2.3-4.9,5.2-5.8c3.8-1.2,7.6-2.3,11.5-3.3c25.7-6.7,51.5-13.2,77.2-20C369.1,193.9,372.7,187.7,370.8,179.6z M355.4,179.1
		c-1.4,0.7-3.1,1-4.7,1.5c-22.1,5.6-44.2,11.2-66.3,16.8c-1.3,0.3-2.6,0.8-3.9,0.7c-4-0.5-3.5-2.3-2.2-4.2l77.8-18.7
		c0.4,0.4,0.6,1,0.7,1.6C356.8,177.6,356.1,178.8,355.4,179.1z"/>
	<path class="st1" d="M275,354.1c-31.7,0.1-58.5-11.4-78.9-35.9c-17.1-20.5-23.5-44.4-15.1-70c4.7-14.3,12.1-28,21.7-40
		c8.2-10.1,19.1-16.4,31.7-19.7c38.3-9.9,76.7-19.7,115-29.5c11.6-3,22-1.5,29.6,8.6c2.7,3.5,5.5,3,8.8,2.3
		c16.8-3.3,22.7-1,31.9,12.9c1.5,2.3,3.6,3.8,5.5,5.6c11.3,10.4,12.8,25.7,3.4,37.7c-2.4,3.1-3.6,5.9-3.9,9.7
		c-0.9,12.2-7,19.2-19.1,22.4c-10.6,2.8-21.3,5.4-31.9,8.2c-10.1,2.7-14.7,7.5-15.2,17.2c-1.9,41.7-35.8,68-73.5,70.4
		C281.6,354.3,278.3,354.1,275,354.1z M232.6,202.6c-8.8,2.7-16.8,7.6-22.3,17.4c15.9,1.5,30.3,4.7,44.3,9.8
		c6.2,2.3,31.1,10,32.2,9.8c0.2,0,0.4-0.5,0.6-0.7c-0.8-0.3-20.4-9.3-20.6-13.1c-0.2-3.6,2.1-5.5,5.2-6.5c3.8-1.2,7.6-2.3,11.5-3.3
		c25.7-6.7,51.5-13.2,77.2-20c8.6-2.3,12.2-8.5,10.2-16.5c-1.6-6.7-8.7-10.7-16.6-8.7C349.4,172,247.5,198,232.6,202.6z
		 M407.2,187.6c-8.6-10.4-19.1-9.1-23.8,3.1c-3.6,9.3-9.7,15.4-19.8,17.8c-20.3,4.9-40.5,10.4-60.8,15.6c-2.5,0.6-5.1,0.8-7.1,3.2
		c4.6,4.8,9.9,4.2,15.6,2.7c28.6-7.4,57.3-14.6,85.9-21.8c2.9-0.7,5.9-1.1,7.8-3.8c0.3-0.4,0.8-0.7,1.2-1.1c0.4-0.4,0.8-0.8,1.2-1.2
		c0.7-0.8,1.3-1.7,1.8-2.7c0.7-1.4,0.9-2.9,0.7-4.5C409.8,194.1,407.7,188.2,407.2,187.6z M212.1,312.7c-0.8,5.9,4,8.2,7.6,10.7
		c21,14.7,43.7,20.8,69.7,17.5c26.5-3.3,55.9-27.1,56-57c0-16.6,9.7-25.7,25.8-29.9c10-2.6,19.9-5.3,29.9-7.8c3-0.8,5.8-1.7,7.9-3.9
		c1.2-1.3,2-2.9,1.3-4.5c-0.9-1.9-2.8-1.5-4.4-1c-17,4.7-34,9.4-51,14.1c-3,0.8-4.9,2.5-6.2,5.7c-2.4,6-3.5,6.3-9.9,3.9
		c-7.5-2.8-14.7-6.2-22.1-9.2c-3.2-1.3-10.4-1.4-10.4-1.1c0,0.7,0,1.4,0.3,1.9c6.2,13.5,3.2,24.7-8.8,33.1c-3.6,2.5-2.5,4.8-1.4,7.6
		c3,7.2,2.5,14.3-0.2,21.4c-0.4,0.9-0.8,1.8-1.2,2.7c-2.5,4.7-5.8,6.6-9.5,5c-4.6-2-3.5-5.7-2.5-9.4c4.5-15.3,0.6-22.6-14.7-27.6
		c-3.5-1.1-7-2-10.5-3.1c-7-2.1-14.1-4-21.1-6.2c-3.8-1.2-5.1-4.1-4.4-7.9c0.7-3.9,3.7-4.5,6.9-4.1c2.9,0.4,5.9,1.1,8.7,1.9
		c11.2,3.2,22.3,6.8,33.6,9.7c9.5,2.4,16.9-4.9,14.9-14c-1.2-5.4-5.5-7.2-10.1-8.6c-18.1-5.6-36.2-11.2-54.4-16.6
		c-5.4-1.6-11-2.5-16.7-2.3c-11.1,0.4-19.2,5.9-22.3,16.5c-5.8,20.2-2.1,38.8,10,55.9c1.7,2.4,3.4,5.1,7.1,4.2
		C210.8,311.4,211.5,312,212.1,312.7z M326.1,241c3.5,2,6.8,2.7,11,1.4c10.5-3.2,21.2-5.7,31.7-8.6c14.1-3.8,28.2-7.7,42.2-11.8
		c9-2.6,10.7-5.4,9.8-16.3c-6.2,11.3-16.4,13.9-26.8,16.4c-21,5.1-41.8,10.6-62.7,15.9C329.5,238.6,327.3,238.3,326.1,241z"/>
	<path class="st0" d="M210.2,310.7c-3.7,0.8-5.4-1.8-7.1-4.2c-12.1-17.1-15.8-35.7-10-55.9c3-10.6,11.2-16.1,22.3-16.5
		c5.8-0.2,11.3,0.7,16.7,2.3c18.2,5.4,36.3,11,54.4,16.6c4.5,1.4,8.8,3.1,10.1,8.6c2,9.1-5.4,16.4-14.9,14
		c-11.3-2.9-22.4-6.5-33.6-9.7c-2.9-0.8-5.8-1.6-8.7-1.9c-3.2-0.4-6.2,0.2-6.9,4.1c-0.7,3.8,0.6,6.7,4.4,7.9c7,2.2,14,4.2,21.1,6.2
		c3.5,1,7.1,1.9,10.5,3.1c15.3,5,19.2,12.3,14.7,27.6c-1.1,3.6-2.1,7.4,2.5,9.4c3.6,1.6,7-0.3,9.5-5c0.5-0.9,0.9-1.8,1.2-2.7
		c2.7-7.1,3.2-14.2,0.2-21.4c-1.2-2.8-2.2-5.1,1.4-7.6c8.1-5.7,13.3-14.2,11.7-24.3c-0.5-2.9-1.5-5.5-2.5-8.1c-0.4-1-0.7-2-0.5-3
		c0.7-3.7,8.5,0.8,10.3,1.5c7.4,2.9,14.7,6.3,22.1,9.2c6.3,2.4,7.5,2.1,9.9-3.9c1.3-3.3,3.2-4.9,6.2-5.7c17-4.8,34-9.5,51-14.1
		c1.6-0.4,3.5-0.8,4.4,1c0.7,1.6-0.1,3.3-1.3,4.5c-2.2,2.2-4.9,3.2-7.9,3.9c-10,2.5-19.9,5.2-29.9,7.8
		c-16.2,4.2-25.8,13.3-25.8,29.9c-0.1,29.9-29.5,53.6-56,57c-26,3.3-48.8-2.9-69.7-17.5c-3.6-2.5-8.4-4.8-7.6-10.7
		c2.8,1.7,5.5,3.6,8.5,5.1c2.1,1,4.7,1.7,6-1c1-1.9,0.3-3.9-1.6-5.2c-0.5-0.4-1-0.8-1.6-1.2c-9.9-6.2-14.8-15.8-18.2-26.4
		c-2.9-9-3.5-18.2-2.2-27.5c0.3-2.6,1.3-5.7-2.4-6.5c-4.3-0.9-4.9,2.8-5.3,5.6c-1.1,6.9-0.9,13.9,0.2,20.8
		C197.3,289.2,203,300.2,210.2,310.7z M342.4,283.7c0.6-10.5-5.9-20.4-14.4-23.1c-2-0.7-4-0.8-5.2,1.3c-1.1,2-0.5,3.9,1.2,5.3
		c0.8,0.6,1.8,0.9,2.6,1.5c8.6,6.4,9.8,10.8,5.9,20.5c-0.5,1.2-1.3,2.4-1.7,3.6c-0.7,2-0.8,4.1,1.4,5.2c2.1,1,3.9,0.2,5.2-1.6
		C340.4,292.2,342,287.5,342.4,283.7z"/>
	<path class="st0" d="M405.1,204.5c-1.9,2.7-4.9,3.1-7.8,3.8c-28.7,7.2-57.3,14.4-85.9,21.8c-5.7,1.5-11,2-15.6-2.7
		c2-2.3,4.6-2.5,7.1-3.2c20.3-5.2,40.4-10.7,60.8-15.6c10.1-2.4,16.2-8.6,19.8-17.8c4.7-12.1,15.2-13.5,23.8-3.1
		c-0.3,0.3-0.6,0.5-0.8,0.8c-3-0.8-5.8-0.8-4.7,3.4c1.1,4.4-1.5,6.1-4.6,7.5c-1.5,0.7-3.2,0.9-4.6,1.7c-0.7,0.4-1.3,1.5-1.3,2.3
		c0,1.6,1.5,2.5,2.7,2.2c3.2-0.7,6.3-1.9,9.5-2.9C403.9,203.3,404.5,203.9,405.1,204.5z"/>
	<path class="st2" d="M210.2,310.7c-7.2-10.5-12.9-21.6-14.8-34.3c-1-6.9-1.2-13.9-0.2-20.8c0.4-2.8,1.1-6.5,5.3-5.6
		c3.7,0.8,2.8,3.9,2.4,6.5c-1.2,9.3-0.6,18.6,2.2,27.5c3.4,10.6,8.4,20.2,18.2,26.4c0.6,0.4,1.1,0.8,1.6,1.2
		c1.9,1.3,2.6,3.2,1.6,5.2c-1.4,2.7-4,2.1-6,1c-2.9-1.5-5.7-3.4-8.5-5.1C211.5,312,210.8,311.4,210.2,310.7z"/>
	<path class="st0" d="M326.1,241c1.2-2.7,3.4-2.5,5.2-2.9c20.9-5.3,41.8-10.8,62.7-15.9c10.4-2.5,20.6-5.1,26.8-16.4
		c0.8,10.9-0.8,13.7-9.8,16.3c-14,4.1-28.1,7.9-42.2,11.8c-10.6,2.9-21.2,5.4-31.7,8.6C332.9,243.7,329.6,243.1,326.1,241z"/>
	<path class="st2" d="M342.4,283.7c-0.4,3.8-2,8.5-5,12.6c-1.3,1.8-3.1,2.6-5.2,1.6c-2.2-1.1-2.1-3.2-1.4-5.2
		c0.4-1.2,1.2-2.4,1.7-3.6c3.9-9.7,2.6-14.2-5.9-20.5c-0.8-0.6-1.8-0.9-2.6-1.5c-1.7-1.4-2.3-3.3-1.2-5.3c1.2-2.2,3.2-2,5.2-1.3
		C336.5,263.3,343.1,273.2,342.4,283.7z"/>
	<path class="st2" d="M279.2,192.8c1.7-1.1,4.3-1.1,6.3-1.6c2.7-0.7,5.3-1.3,8-2c2.7-0.7,5.3-1.3,8-2c2.6-0.7,5.3-1.4,7.9-2.1
		c2.7-0.7,5.3-1.3,8-2c2.7-0.7,5.3-1.3,8-2c2.7-0.7,5.3-1.3,8-2c2.7-0.7,5.4-1.3,8-2c4.2-0.9,8.4-1.9,12.6-2.6
		c1.5-0.3,2.6,0.8,2.7,2.2c0,0.8-0.7,2-1.4,2.3c-1.4,0.7-3.1,1-4.7,1.5c-12.1,3.1-24.1,6.1-36.2,9.2c-6,1.5-12.1,3.1-18.1,4.6
		c-3.1,0.8-6.2,1.6-9.2,2.3c-2.6,0.7-5.4,1.8-8.1,1.1c-0.6-0.1-1.1-0.4-1.4-0.9c-0.2-0.4-0.2-0.9-0.2-1.4
		C277.7,194.2,278.4,193.4,279.2,192.8z"/>
	<path class="st2" d="M406.3,188.5c0.2,0.3,0.3,0.6,0.5,0.9c1,2.9,1.2,6-0.1,8.8c-1.2,2.7-3.6,4.7-6.4,5.6c-1,0.3-2,0.5-3,0.8
		c-0.9,0.3-1.8,0.7-2.8,0.9c-0.8,0.2-1.7,0.1-2.4-0.3c-1.4-0.9-1-3,0.1-3.9c0.7-0.6,1.5-0.8,2.4-1c1.4-0.4,2.8-0.9,4.1-1.7
		c1.4-0.8,2.7-1.9,3.1-3.4c0.3-1,0.2-2.1,0-3.1c-0.2-0.8-0.4-1.5-0.3-2.3c0.1-1,0.9-1.6,1.8-1.8
		C404.1,187.9,405.6,187.8,406.3,188.5z"/>
	<path class="st0" d="M203,306.5c0,0,10,12.7,12.9,14.2c2.9,1.5,5.9,0,5.9,0s-11-8.8-12.6-11.3C207.6,306.8,203,306.5,203,306.5z"/>
</g>
</svg>
