<?xml version="1.0" encoding="utf-8"?>
<!-- Generator: Adobe Illustrator 22.1.0, SVG Export Plug-In . SVG Version: 6.00 Build 0)  -->
<svg version="1.1" id="Layer_1" xmlns="http://www.w3.org/2000/svg" xmlns:xlink="http://www.w3.org/1999/xlink" x="0px" y="0px"
	 viewBox="0 0 350 350" style="enable-background:new 0 0 350 350;" xml:space="preserve">
<style type="text/css">
	.st0{fill:#1C73B8;}
	.st1{fill:#060A0A;}
	.st2{fill:#F9F1F2;}
</style>
<g>
	<polygon class="st0" points="179.3,130.9 170.3,160.2 198,172.8 223.9,109.2 217,96.4 204.5,91.6 189.3,102.5 	"/>
	<path class="st0" d="M220.1,226c-8.1-5.9-14.3-14.7-25.1-16.4c-1.6-0.2-3.1-1.5-4.5-0.1s-1,3.1-0.4,4.7c2.9,8.1,1.7,15.7-2.1,23.1
		c-3.1,6.1-6.8,8.2-10.7,6.6c-3.9-1.6-4.2-5-1.1-11.9c4.6-10.4,1.9-18.9-7.9-24.5c-2.3-1.3-4.8-2.2-7.3-3.2
		c-8.6-3.4-17.4-6.7-25.9-10.3c-6.3-2.6-8.1-5.5-6.6-9.3c1.6-3.9,5-4.9,11-2.7c9.9,3.8,19.8,7.8,29.7,11.7c3.7,1.4,7.4,3,11.3,3.9
		c5.2,1.1,10.6-2.5,12.4-7.8c1.4-4.1,0.8-6.9-2.5-9.6l0,0c-6-5.8-13.1-8.5-13.1-8.5l0,0c-1-0.4-2-0.7-2.9-1.1
		c-14.7-6.1-29.5-12.2-44.3-18.1c-3.7-1.5-7.5-2.7-11.4-3.6c-15.2-3.6-24.3,1.7-28.9,16.6c-2,6.5-2.3,12.9-1.6,19.3l-2.2,8.9
		l22,40.5l2.7-0.5c16.4,18.7,37.4,28.2,62.2,28c20.4-0.1,35.8-10.9,46.8-27.9C221.2,231.6,223.7,228.6,220.1,226z M180.9,174.7
		c-0.1-0.2-0.3-0.4-0.4-0.6c1.9,1.3,5.7,4.9,5.7,4.9s0.5,0.4,1.3,0.9c0.4,3,3,5.7,1.4,8.9c-0.7,1.5-1.3,3.1-3.4,3
		c-1.8-0.1-2.1-1.8-1.9-2.9c0.8-4.5-2.2-6.2-5.2-8.6C173.1,176.1,177.4,175.4,180.9,174.7z"/>
	<polygon class="st0" points="177.1,170.5 175.9,174.7 183.5,182.1 187.1,188.2 188.4,189.8 191.1,188.6 192,179 185.9,173.5 	"/>
	<path class="st1" d="M75.4,170.1c1.8-27.9,16.1-57.3,43.9-79.5c13.3-10.6,28.9-16.3,46.4-14.8c8.2,0.7,15.7,3.4,21.4,9.5
		c2.4,2.6,4,3.4,7.5,1.5c14.8-7.8,33.2,0.3,37.8,14.7c1.2,3.7,3.6,4.9,6.9,6c10.2,3.5,16,10.6,16.6,21.4c0.2,3.5,1.4,5.1,4.3,6.8
		c14.5,8.4,17.7,17.9,11.5,33.4c-5.7,14.2-11.8,28.2-17.3,42.5c-2.8,7.2-6.7,13-14.3,15.5c-2.8,0.9-4.1,2.7-5.3,5.3
		c-15.3,32.7-45.8,47.7-81.3,40.1C107.9,262.8,75.5,223.3,75.4,170.1z M106.8,229.1c0.6,0.7,1.2,1.4,1.8,2.2
		c16.6,20.3,38.4,30.7,64.3,30.5c20.4-0.1,35.8-10.9,46.8-27.9c1.5-2.3,4-5.3,0.4-7.9c-8.1-5.9-14.3-14.7-25.1-16.4
		c-1.6-0.2-3.1-1.5-4.5-0.1s-1,3.1-0.4,4.7c2.9,8.1,1.7,15.7-2.1,23.1c-3.1,6.1-6.8,8.2-10.7,6.6c-3.9-1.6-4.2-5-1.1-11.9
		c4.6-10.4,1.9-18.9-7.9-24.5c-2.3-1.3-4.8-2.2-7.3-3.2c-8.6-3.4-17.4-6.7-25.9-10.3c-6.3-2.6-8.1-5.5-6.6-9.3c1.6-3.9,5-4.9,11-2.7
		c9.9,3.8,19.8,7.8,29.7,11.7c3.7,1.4,7.4,3,11.3,3.9c5.2,1.1,10.6-2.5,12.4-7.8c0.9-2.6-0.4-5.2-1.8-7.4c-1.3-1.9-2.7-3.7-4.4-5.2
		c-1.7-1.6-3.7-2.6-5.8-3.6c-2.1-1-4.3-2-6.5-2.9c-14.7-6.1-29.5-12.2-44.3-18.1c-3.7-1.5-7.5-2.7-11.4-3.6
		c-15.2-3.6-24.3,1.7-28.9,16.6c-3.3,10.6-2.1,21,1,31.3c0.5,2.7,3.5,10.6,4,12.1c0.4,2,9.7,17.1,10.3,17.8
		C105.7,227.6,106.2,228.3,106.8,229.1z M220.2,113.3c2-7-1.2-12.9-8.3-15.7c-6.6-2.6-13.3-0.8-16.1,5.6
		c-7,16.2-13.4,32.6-20.1,48.9c-1.2,3-0.4,5.1,2.7,6.4c5.5,2.3,11,4.7,16.4,7.2c3,1.4,4.3-0.2,5.2-2.6
		C204.7,150.9,219.8,114.6,220.2,113.3z M98.8,135.9c6.8-0.3,11.6-1.6,16.7-0.7c12.7,2.4,12.8,2.2,17.5-9.5c0.9-2.2,1.7-4.3,2.6-6.5
		c1.8-4.3,3.3-8.7,5.4-12.9c1.7-3.3,4.6-5.1,8.3-3.2c3.2,1.7,4.8,4.6,3.2,8.4c-0.8,1.8-1.5,3.7-2.3,5.6c-2.7,6.8-5.4,13.6-8.3,20.4
		c-2.4,5.7,1.6,7.8,5.5,8.2c5.2,0.6,11.1,9.8,15.4,1.2c6.7-13.4,11.8-27.5,16.8-41.7c2.6-7.3-0.4-11.9-7.7-15.1
		c-6.7-2.9-13.6-2.7-20.6-1C126.4,95.5,111.3,112.8,98.8,135.9z M262,156.8c-0.5-1.4-0.8-3.1-1.6-4.5c-1.6-2.6-3.7-5.2-6.8-5.3
		c-3.5-0.1-3.5,3.4-4.4,5.8c-4.8,11.7-9.5,23.4-14.3,35.1c-2.9,7-4.8,14.6-11.2,19.7c-2.5,2-1.8,4,0.5,5.6
		c6.4,4.8,14.1,3.2,17.3-4.4c6.8-15.9,13.1-32,19.6-48C261.5,159.8,261.6,158.4,262,156.8z M243.1,132.6c0.5-3.1-0.1-5.3-1.3-7.4
		c-1.7-3.1-4-5.4-7.8-5.3c-3.4,0.1-3.8,3.3-4.8,5.6c-2.7,6.4-5.4,12.8-7.9,19.4c-6.2,16.3-15.2,31.7-16.8,49.6
		c-0.4,5,0.5,6.6,5.5,5.7c4.8-0.9,7.5-4,9.2-8.2c7.5-18.4,15-36.9,22.4-55.3C242.4,135.1,242.8,133.5,243.1,132.6z"/>
	<path class="st0" d="M98.8,135.9c12.5-23.2,27.6-40.4,52.5-46.6c6.9-1.7,13.8-1.9,20.6,1c7.3,3.1,10.3,7.8,7.7,15.1
		c-5,14.1-10.1,28.3-16.8,41.7c-4.3,8.5-10.2-0.7-15.4-1.2c-3.9-0.4-7.9-2.5-5.5-8.2c2.9-6.7,5.5-13.6,8.3-20.4
		c0.8-1.9,1.5-3.7,2.3-5.6c1.6-3.8,0-6.6-3.2-8.4c-3.7-2-6.6-0.1-8.3,3.2c-2.1,4.1-3.7,8.6-5.4,12.9c-0.9,2.2-1.7,4.3-2.6,6.5
		c-4.7,11.6-4.8,11.9-17.5,9.5C110.5,134.3,105.7,135.6,98.8,135.9z"/>
	<path class="st0" d="M262,156.8c-0.3,1.5-0.4,2.9-0.9,4.1c-6.5,16-12.8,32.1-19.6,48c-3.2,7.5-10.9,9.1-17.3,4.4
		c-2.3-1.7-3-3.6-0.5-5.6c6.3-5.1,8.2-12.7,11.2-19.7c4.9-11.6,9.5-23.4,14.3-35.1c1-2.3,1-5.9,4.4-5.8c3.2,0.1,5.3,2.6,6.8,5.3
		C261.2,153.8,261.5,155.4,262,156.8z"/>
	<path class="st0" d="M243.1,132.6c-0.3,0.9-0.8,2.5-1.4,4c-7.5,18.5-14.9,36.9-22.4,55.3c-1.7,4.2-4.5,7.4-9.2,8.2
		c-4.9,0.9-5.9-0.7-5.5-5.7c1.6-17.9,10.6-33.3,16.8-49.6c2.5-6.5,5.2-12.9,7.9-19.4c1-2.3,1.4-5.5,4.8-5.6c3.8-0.1,6.1,2.2,7.8,5.3
		C243,127.3,243.6,129.5,243.1,132.6z M223.1,172.7c5-12.6,9.9-25.3,14.8-38c0.5-1.3,0.1-3-1-3.5c-1.9-0.8-3.1,0.6-3.7,2.2
		c-4.8,12-9.5,24.1-14.2,36.1C218.5,170.4,222.8,173.4,223.1,172.7z"/>
	<path class="st2" d="M188.9,188.7c-0.7,1.5-1.3,3.1-3.4,3c-1.8-0.1-2.1-1.8-1.9-2.9c0.8-4.5-2.2-6.2-5.2-8.6
		c-1.1-0.8-3.2-2.5-2.1-4c0.6-0.9,3.8-1.8,4.8-1.5c0.3,0.1,0.6,0.4,0.9,0.6C184.4,177.9,190.9,184.7,188.9,188.7z"/>
	<path class="st2" d="M110.6,229.2c-0.2-0.1-0.4-0.3-0.6-0.5c-1.6-1.3-2.6-3.2-3.7-5c-1.3-2.2-2.4-4.4-3.6-6.6
		c-2.6-4.9-5.1-9.9-7.5-15c-2-4.3-2.3-9.1-2.6-13.8c-0.2-4.3-0.5-9.1,1-13.2c0.9-2.4,2.3-4.2,5.1-3.5s3.1,3.1,2.5,5.6
		c-4.1,17,2.4,31,12.7,43.8c0.4,0.5,0.9,1,1.4,1.4c1.6,1.7,3.5,3.5,2.1,6C116,231.1,112.8,230.6,110.6,229.2z"/>
	<path class="st2" d="M214.6,121.4c-0.6,1.4-1.1,2.8-1.7,4.2c-2.2,4.4-4.4,8.8-6.7,13.2c-1,2-2,4.8-4.9,3.2c-2.4-1.3-0.7-3.5,0-5.2
		c2.7-6,5.4-12,8.1-18.1c2-4.4,3.6-8.8-2.2-11.8c-1.3-0.7-1.6-2.1-0.7-3.4c0.9-1.2,2.3-1.4,3.6-0.8c5.9,2.4,7.4,7,6.7,12.9
		C216.1,117.5,215.4,119.5,214.6,121.4z"/>
	<path class="st2" d="M218.8,169.5c0-0.5,0.2-1.1,0.5-1.6c2-4.5,3.8-9.1,5.6-13.7c2.7-6.9,5.5-13.9,8.2-20.8
		c0.7-1.7,1.9-3.1,3.7-2.2c1.2,0.5,1.5,2.3,1,3.5c-2.7,7.1-5.5,14.3-8.2,21.4c-1.9,4.9-5.6,15.7-5.9,16c-0.6,0.7-1.5,0.5-2.2,0.1
		c-1-0.5-2.3-1.1-2.6-2.3C218.8,169.8,218.8,169.6,218.8,169.5z"/>
</g>
</svg>
