<?xml version="1.0" encoding="utf-8"?>
<!-- Generator: Adobe Illustrator 22.1.0, SVG Export Plug-In . SVG Version: 6.00 Build 0)  -->
<svg version="1.1" id="Layer_1" xmlns="http://www.w3.org/2000/svg" xmlns:xlink="http://www.w3.org/1999/xlink" x="0px" y="0px"
	 viewBox="0 0 612 511.8" style="enable-background:new 0 0 612 511.8;" xml:space="preserve">
<style type="text/css">
	.st0{fill:#1C73B8;}
	.st1{fill:#060A0A;}
	.st2{fill:#F9F1F2;}
</style>
<g>
	<polygon class="st0" points="310.3,211.8 301.3,241.1 329,253.7 354.9,190.1 348,177.3 335.5,172.5 320.3,183.4 	"/>
	<path class="st0" d="M351.1,306.9c-8.1-5.9-14.3-14.7-25.1-16.4c-1.6-0.2-3.1-1.5-4.5-0.1c-1.4,1.4-1,3.1-0.4,4.7
		c2.9,8.1,1.7,15.7-2.1,23.1c-3.1,6.1-6.8,8.2-10.7,6.6c-3.9-1.6-4.2-5-1.1-11.9c4.6-10.4,1.9-18.9-7.9-24.5
		c-2.3-1.3-4.8-2.2-7.3-3.2c-8.6-3.4-17.4-6.7-25.9-10.3c-6.3-2.6-8.1-5.5-6.6-9.3c1.6-3.9,5-4.9,11-2.7c9.9,3.8,19.8,7.8,29.7,11.7
		c3.7,1.4,7.4,3,11.3,3.9c5.2,1.1,10.6-2.5,12.4-7.8c1.4-4.1,0.8-6.9-2.5-9.6c0,0,0,0,0,0c-6-5.8-13.1-8.5-13.1-8.5s0,0,0,0
		c-1-0.4-2-0.7-2.9-1.1c-14.7-6.1-29.5-12.2-44.3-18.1c-3.7-1.5-7.5-2.7-11.4-3.6c-15.2-3.6-24.3,1.7-28.9,16.6
		c-2,6.5-2.3,12.9-1.6,19.3l-2.2,8.9l22,40.5l2.7-0.5c16.4,18.7,37.4,28.2,62.2,28c20.4-0.1,35.8-10.9,46.8-27.9
		C352.2,312.5,354.7,309.5,351.1,306.9z M311.9,255.6c-0.1-0.2-0.3-0.4-0.4-0.6c1.9,1.3,5.7,4.9,5.7,4.9s0.5,0.4,1.3,0.9
		c0.4,3,3,5.7,1.4,8.9c-0.7,1.5-1.3,3.1-3.4,3c-1.8-0.1-2.1-1.8-1.9-2.9c0.8-4.5-2.2-6.2-5.2-8.6C304.1,257,308.4,256.3,311.9,255.6
		z"/>
	<polygon class="st0" points="308.1,251.4 306.9,255.6 314.5,263 318.1,269.1 319.4,270.7 322.1,269.5 323,259.9 316.9,254.4 	"/>
	<path class="st1" d="M206.4,251c1.8-27.9,16.1-57.3,43.9-79.5c13.3-10.6,28.9-16.3,46.4-14.8c8.2,0.7,15.7,3.4,21.4,9.5
		c2.4,2.6,4,3.4,7.5,1.5c14.8-7.8,33.2,0.3,37.8,14.7c1.2,3.7,3.6,4.9,6.9,6c10.2,3.5,16,10.6,16.6,21.4c0.2,3.5,1.4,5.1,4.3,6.8
		c14.5,8.4,17.7,17.9,11.5,33.4c-5.7,14.2-11.8,28.2-17.3,42.5c-2.8,7.2-6.7,13-14.3,15.5c-2.8,0.9-4.1,2.7-5.3,5.3
		c-15.3,32.7-45.8,47.7-81.3,40.1C238.9,343.7,206.5,304.2,206.4,251z M237.8,310c0.6,0.7,1.2,1.4,1.8,2.2
		c16.6,20.3,38.4,30.7,64.3,30.5c20.4-0.1,35.8-10.9,46.8-27.9c1.5-2.3,4-5.3,0.4-7.9c-8.1-5.9-14.3-14.7-25.1-16.4
		c-1.6-0.2-3.1-1.5-4.5-0.1c-1.4,1.4-1,3.1-0.4,4.7c2.9,8.1,1.7,15.7-2.1,23.1c-3.1,6.1-6.8,8.2-10.7,6.6c-3.9-1.6-4.2-5-1.1-11.9
		c4.6-10.4,1.9-18.9-7.9-24.5c-2.3-1.3-4.8-2.2-7.3-3.2c-8.6-3.4-17.4-6.7-25.9-10.3c-6.3-2.6-8.1-5.5-6.6-9.3c1.6-3.9,5-4.9,11-2.7
		c9.9,3.8,19.8,7.8,29.7,11.7c3.7,1.4,7.4,3,11.3,3.9c5.2,1.1,10.6-2.5,12.4-7.8c0.9-2.6-0.4-5.2-1.8-7.4c-1.3-1.9-2.7-3.7-4.4-5.2
		c-1.7-1.6-3.7-2.6-5.8-3.6c-2.1-1-4.3-2-6.5-2.9c-14.7-6.1-29.5-12.2-44.3-18.1c-3.7-1.5-7.5-2.7-11.4-3.6
		c-15.2-3.6-24.3,1.7-28.9,16.6c-3.3,10.6-2.1,21,1,31.3c0.5,2.7,3.5,10.6,4,12.1c0.4,2,9.7,17.1,10.3,17.8
		C236.7,308.5,237.2,309.2,237.8,310z M351.2,194.2c2-7-1.2-12.9-8.3-15.7c-6.6-2.6-13.3-0.8-16.1,5.6c-7,16.2-13.4,32.6-20.1,48.9
		c-1.2,3-0.4,5.1,2.7,6.4c5.5,2.3,11,4.7,16.4,7.2c3,1.4,4.3-0.2,5.2-2.6C335.7,231.8,350.8,195.5,351.2,194.2z M229.8,216.8
		c6.8-0.3,11.6-1.6,16.7-0.7c12.7,2.4,12.8,2.2,17.5-9.5c0.9-2.2,1.7-4.3,2.6-6.5c1.8-4.3,3.3-8.7,5.4-12.9c1.7-3.3,4.6-5.1,8.3-3.2
		c3.2,1.7,4.8,4.6,3.2,8.4c-0.8,1.8-1.5,3.7-2.3,5.6c-2.7,6.8-5.4,13.6-8.3,20.4c-2.4,5.7,1.6,7.8,5.5,8.2
		c5.2,0.6,11.1,9.8,15.4,1.2c6.7-13.4,11.8-27.5,16.8-41.7c2.6-7.3-0.4-11.9-7.7-15.1c-6.7-2.9-13.6-2.7-20.6-1
		C257.4,176.4,242.3,193.7,229.8,216.8z M393,237.7c-0.5-1.4-0.8-3.1-1.6-4.5c-1.6-2.6-3.7-5.2-6.8-5.3c-3.5-0.1-3.5,3.4-4.4,5.8
		c-4.8,11.7-9.5,23.4-14.3,35.1c-2.9,7-4.8,14.6-11.2,19.7c-2.5,2-1.8,4,0.5,5.6c6.4,4.8,14.1,3.2,17.3-4.4
		c6.8-15.9,13.1-32,19.6-48C392.5,240.7,392.6,239.3,393,237.7z M374.1,213.5c0.5-3.1-0.1-5.3-1.3-7.4c-1.7-3.1-4-5.4-7.8-5.3
		c-3.4,0.1-3.8,3.3-4.8,5.6c-2.7,6.4-5.4,12.8-7.9,19.4c-6.2,16.3-15.2,31.7-16.8,49.6c-0.4,5,0.5,6.6,5.5,5.7
		c4.8-0.9,7.5-4,9.2-8.2c7.5-18.4,15-36.9,22.4-55.3C373.4,216,373.8,214.4,374.1,213.5z"/>
	<path class="st0" d="M229.8,216.8c12.5-23.2,27.6-40.4,52.5-46.6c6.9-1.7,13.8-1.9,20.6,1c7.3,3.1,10.3,7.8,7.7,15.1
		c-5,14.1-10.1,28.3-16.8,41.7c-4.3,8.5-10.2-0.7-15.4-1.2c-3.9-0.4-7.9-2.5-5.5-8.2c2.9-6.7,5.5-13.6,8.3-20.4
		c0.8-1.9,1.5-3.7,2.3-5.6c1.6-3.8,0-6.6-3.2-8.4c-3.7-2-6.6-0.1-8.3,3.2c-2.1,4.1-3.7,8.6-5.4,12.9c-0.9,2.2-1.7,4.3-2.6,6.5
		c-4.7,11.6-4.8,11.9-17.5,9.5C241.5,215.2,236.7,216.5,229.8,216.8z"/>
	<path class="st0" d="M393,237.7c-0.3,1.5-0.4,2.9-0.9,4.1c-6.5,16-12.8,32.1-19.6,48c-3.2,7.5-10.9,9.1-17.3,4.4
		c-2.3-1.7-3-3.6-0.5-5.6c6.3-5.1,8.2-12.7,11.2-19.7c4.9-11.6,9.5-23.4,14.3-35.1c1-2.3,1-5.9,4.4-5.8c3.2,0.1,5.3,2.6,6.8,5.3
		C392.2,234.7,392.5,236.3,393,237.7z"/>
	<path class="st0" d="M374.1,213.5c-0.3,0.9-0.8,2.5-1.4,4c-7.5,18.5-14.9,36.9-22.4,55.3c-1.7,4.2-4.5,7.4-9.2,8.2
		c-4.9,0.9-5.9-0.7-5.5-5.7c1.6-17.9,10.6-33.3,16.8-49.6c2.5-6.5,5.2-12.9,7.9-19.4c1-2.3,1.4-5.5,4.8-5.6c3.8-0.1,6.1,2.2,7.8,5.3
		C374,208.2,374.6,210.4,374.1,213.5z M354.1,253.6c5-12.6,9.9-25.3,14.8-38c0.5-1.3,0.1-3-1-3.5c-1.9-0.8-3.1,0.6-3.7,2.2
		c-4.8,12-9.5,24.1-14.2,36.1C349.5,251.3,353.8,254.3,354.1,253.6z"/>
	<path class="st2" d="M319.9,269.6c-0.7,1.5-1.3,3.1-3.4,3c-1.8-0.1-2.1-1.8-1.9-2.9c0.8-4.5-2.2-6.2-5.2-8.6
		c-1.1-0.8-3.2-2.5-2.1-4c0.6-0.9,3.8-1.8,4.8-1.5c0.3,0.1,0.6,0.4,0.9,0.6C315.4,258.8,321.9,265.6,319.9,269.6z"/>
	<path class="st2" d="M241.6,310.1c-0.2-0.1-0.4-0.3-0.6-0.5c-1.6-1.3-2.6-3.2-3.7-5c-1.3-2.2-2.4-4.4-3.6-6.6
		c-2.6-4.9-5.1-9.9-7.5-15c-2-4.3-2.3-9.1-2.6-13.8c-0.2-4.3-0.5-9.1,1-13.2c0.9-2.4,2.3-4.2,5.1-3.5c2.8,0.7,3.1,3.1,2.5,5.6
		c-4.1,17,2.4,31,12.7,43.8c0.4,0.5,0.9,1,1.4,1.4c1.6,1.7,3.5,3.5,2.1,6C247,312,243.8,311.5,241.6,310.1z"/>
	<path class="st2" d="M345.6,202.3c-0.6,1.4-1.1,2.8-1.7,4.2c-2.2,4.4-4.4,8.8-6.7,13.2c-1,2-2,4.8-4.9,3.2c-2.4-1.3-0.7-3.5,0-5.2
		c2.7-6,5.4-12,8.1-18.1c2-4.4,3.6-8.8-2.2-11.8c-1.3-0.7-1.6-2.1-0.7-3.4c0.9-1.2,2.3-1.4,3.6-0.8c5.9,2.4,7.4,7,6.7,12.9
		C347.1,198.4,346.4,200.4,345.6,202.3z"/>
	<path class="st2" d="M349.8,250.4c0-0.5,0.2-1.1,0.5-1.6c2-4.5,3.8-9.1,5.6-13.7c2.7-6.9,5.5-13.9,8.2-20.8
		c0.7-1.7,1.9-3.1,3.7-2.2c1.2,0.5,1.5,2.3,1,3.5c-2.7,7.1-5.5,14.3-8.2,21.4c-1.9,4.9-5.6,15.7-5.9,16c-0.6,0.7-1.5,0.5-2.2,0.1
		c-1-0.5-2.3-1.1-2.6-2.3C349.8,250.7,349.8,250.5,349.8,250.4z"/>
</g>
</svg>
