<?xml version="1.0" encoding="utf-8"?>
<!-- Generator: Adobe Illustrator 22.1.0, SVG Export Plug-In . SVG Version: 6.00 Build 0)  -->
<svg version="1.1" id="Layer_1" xmlns="http://www.w3.org/2000/svg" xmlns:xlink="http://www.w3.org/1999/xlink" x="0px" y="0px"
	 viewBox="0 0 612 511.8" style="enable-background:new 0 0 612 511.8;" xml:space="preserve">
<style type="text/css">
	.st0{fill:#03A49B;}
	.st1{fill:#060A0A;}
	.st2{fill:#F9F1F2;}
</style>
<g>
	<polygon class="st0" points="357.6,281.9 363.3,295.7 418.9,230.6 418.9,226.2 418.3,221.9 413.6,221.9 	"/>
	<path class="st1" d="M288,140.1c3-3.6,3.3-7.1,4.4-10.1c5.6-15.7,20-23.7,34.6-19.1c14.1,4.4,22.2,20.2,17.6,35.5
		c-4.9,16.2-10.8,32.2-15.9,48.3c-2.9,9.1-6.9,17.8-8.5,28c4.2-1.9,6-5.2,8.2-7.9c15.1-17.8,30.1-35.6,45.1-53.5
		c4.4-5.3,9.5-9.5,16.3-10.8c9.6-1.8,18,0.7,24.2,8.4c6.5,8,7.2,17,3.4,26.3c-1.1,2.7-2.9,5.2-4.3,7.8c0.7,0.5,1.1,1,1.6,1.1
		c21.7,2.6,28.8,26,15.9,42.5c-4.7,6-9.8,11.8-14.9,17.5c-10.5,11.6-20.9,23.3-31.8,34.5c-15.3,15.7-27.5,33.3-35.1,54
		c-2.4,6.6-5.8,12.7-9.5,18.7c-20.2,32.4-51.3,46.1-88.8,39.2c-38.8-7.2-70.1-38.1-74.7-76c-2.9-24.3,3.2-46.4,23.3-62.5
		c3.2-2.5,4.3-5.8,5.6-9.1c13.3-34.4,26.5-68.9,39.8-103.3c5.6-14.5,18.1-21.1,31.6-17.2C280.7,133.6,284.4,136.4,288,140.1z
		 M418.8,228.3c0,0,7.3-11.4,2.9-16.8c-4.4-5.4-10.3-5.9-16.8-1.2c-1.9,1.3-3.6,3-5.2,4.7c-18.1,19.5-36.2,39.1-54.2,58.7
		c-2.9,3.2-6.8,6-8.3,9.8c-1.8,4.4,3.4,7.4,5,11.3c1.7,4,2.8,7.7-1.6,10.5c-3.3,2.2-6.7,0.9-9.5-4.1c-12.4-21.6-31.6-34.7-54.7-42.5
		c-7.9-2.7-16.2-3.8-24.5-4.3c-1.3-0.1-2.7,0-4-0.1c-3.8-0.1-6.6-1.7-6.9-5.7c-0.2-4.6,2.8-7.1,6.9-6.5c7.2,0.9,8.9-3.2,10.5-8.9
		c4.2-15.1,8.7-30,13.1-45c2.6-8.9,5.4-17.8,8.1-26.8c2.2-7.6-0.5-14.5-6.5-16.8c-6.5-2.5-13.1,1-16.5,8.8c-0.5,1.2-1,2.5-1.5,3.7
		c-5.9,15.2-11.7,30.4-17.6,45.6c-6,15.5-11.8,31.1-17.8,46.6c-1.3,3.3-1.8,5.9,3,6.1c19.9,1.1,36.7,11.2,54.2,19.1
		c6.7,3,12.2,8,15.7,14.9c8.5,17.1-3.7,36.9-22.6,36.6c-4.2-0.1-8.4-0.8-12.8-1.3c0,3.4,0,6.3,0,9.3c0,5,0,10-1.7,14.8
		c-2.3,6.1-4.9,8.5-8.9,7.1c-5.1-1.8-4.4-5.9-3.5-10c0.2-1,0.7-1.9,0.9-2.9c2.8-12.7-1-22-11.8-29.2c-0.6-0.4-1.1-0.7-1.7-1
		c-3.9-2.1-5.1-5.4-3.2-9.2c1.8-3.6,5-3.9,8.6-2.3c4.2,1.9,8.6,3.6,12.8,5.6c6.1,2.8,12.3,5.1,18.9,6.3c6.2,1.2,10.4-0.5,12.9-5.1
		c2.7-5,3.5-10.1-0.5-14.9c-1.3-1.5-2.5-3.1-4.5-3.8c-1.2-0.9-2.4-1.7-3.6-2.6c-13.3-7.7-27.3-13.9-42.1-17.8
		c-14.4-3.7-24.6,0.5-32.4,13.1c-9.3,14.9-11.2,31.3-7.4,48.1c6.6,28.6,35,53.1,64.9,57.9c36.2,5.8,62.3-11.9,76.3-38.4
		c3.4-6.5,6.6-13.1,9.4-19.9c5.7-14,13-27,23.3-38.1C365.1,290.4,419.3,230.5,418.8,228.3z M406.7,175.2
		c-0.2-9.4-8.7-14.7-16.9-11.1c-3.6,1.5-5.6,4.5-8,7.3c-22.1,26.2-44.1,52.4-66.2,78.6c-7.6,9-7.6,8.9,1.2,15.9
		c2.1,1.6,4.2,3.3,6,5.2c2.7,2.8,4.7,2.8,7.2-0.3c5-6.2,10.3-12.2,15.4-18.3c18.7-22.1,37.3-44.2,56-66.3
		C404.3,182.8,407,179.4,406.7,175.2z M269,242.8c7.4,2.6,14.4,4.6,21,7.4c4.4,1.9,6.4,1.4,7.9-3.4c11.1-34.1,22.5-68.1,33.7-102.2
		c3.3-10.2-0.2-18.7-8.4-21.6c-7.8-2.8-15.7,2.2-19.1,12.6c-8.6,25.8-17,51.7-25.5,77.6C275.4,223,272.3,232.8,269,242.8z"/>
	<path class="st0" d="M363.6,292c-10.4,11.1-17.6,24.1-23.3,38.1c-2.8,6.8-5.9,13.4-9.4,19.9c-14,26.5-40,44.2-76.3,38.4
		c-29.9-4.8-58.3-29.3-64.9-57.9c-3.9-16.8-1.9-33.2,7.4-48.1c7.8-12.6,18-16.8,32.4-13.1c14.9,3.8,28.8,10,42.1,17.8
		c-0.6,0.8-1.3,1.5-1.9,2.3c-2.5,0.4-5.4,1.6-2.8,4.2c3.5,3.4,6.4,6.5,5.5,11.7c-0.1,0.7,0.7,2,1.4,2.3c1.4,0.6,2.5-0.3,3.1-1.6
		c2.7-5.7-0.2-10.1-3.5-14.4c0.6-0.6,1.2-1.3,1.8-1.9c2,0.6,3.2,2.2,4.5,3.8c4.1,4.8,3.2,9.9,0.5,14.9c-2.5,4.6-6.7,6.3-12.9,5.1
		c-6.6-1.2-12.8-3.5-18.9-6.3c-4.2-1.9-8.6-3.7-12.8-5.6c-3.5-1.6-6.8-1.3-8.6,2.3c-1.9,3.8-0.7,7.1,3.2,9.2c0.6,0.3,1.2,0.6,1.7,1
		c10.8,7.2,14.6,16.5,11.8,29.2c-0.2,1-0.7,1.9-0.9,2.9c-0.9,4.1-1.6,8.2,3.5,10c4,1.4,6.6-0.9,8.9-7.1c1.8-4.8,1.7-9.8,1.7-14.8
		c0-2.9,0-5.9,0-9.3c4.5,0.5,8.6,1.2,12.8,1.3c18.9,0.4,31.2-19.5,22.6-36.6c-3.4-6.9-9-11.9-15.7-14.9c-17.5-7.9-34.3-18-54.2-19.1
		c-4.8-0.3-4.3-2.8-3-6.1c6-15.5,11.9-31.1,17.8-46.6c5.8-15.2,11.7-30.4,17.6-45.6c0.5-1.2,1-2.5,1.5-3.7c3.4-7.8,10-11.3,16.5-8.8
		c6,2.3,8.8,9.1,6.5,16.8c-2.6,8.9-5.4,17.8-8.1,26.8c-4.4,15-9,29.9-13.1,45c-1.6,5.6-3.3,9.8-10.5,8.9c-4.1-0.5-7.2,2-6.9,6.5
		c0.2,4,3.1,5.6,6.9,5.7c1.3,0,2.7,0,4,0.1c8.3,0.4,16.6,1.6,24.5,4.3c23.1,7.8,42.3,20.8,54.7,42.5c2.8,5,6.2,6.3,9.5,4.1
		c4.4-2.9,3.2-6.5,1.6-10.5c-1.6-3.9-6.8-6.9-5-11.3c1.5-3.8,5.4-6.6,8.3-9.8c18-19.6,36.1-39.2,54.2-58.7c1.6-1.7,3.3-3.4,5.2-4.7
		c6.5-4.6,12.4-4.1,16.8,1.2c4.4,5.4,3.5,10.8-2.9,16.9c-1.4-6.2-2.4-6.8-6-2.8c-16.8,18.3-33.5,36.7-50.1,55.2
		C359.2,284.6,365.1,290.4,363.6,292z M192.9,313.8c1.2,20.2,8.6,37.4,24.2,50.7c1.5,1.3,3.1,2.5,4.8,3.5c2.2,1.3,4.5,1.6,6.1-0.8
		c1.3-2,0.5-3.8-1.3-5.2c-1-0.8-2.1-1.6-3.2-2.4c-9.9-7.5-16.2-17.6-19.7-29.3c-2.7-9-4.3-18.1-1.3-27.5c0.7-2.2,0.9-5-2-5.9
		c-3.4-1.1-4.8,1.5-5.6,4.2C193.7,305.2,192.7,309.4,192.9,313.8z"/>
	<path class="st0" d="M406.7,175.2c0.3,4.2-2.4,7.6-5.3,11c-18.7,22.1-37.3,44.2-56,66.3c-5.2,6.1-10.5,12.1-15.4,18.3
		c-2.5,3.2-4.5,3.1-7.2,0.3c-1.8-1.9-3.9-3.6-6-5.2c-8.8-7-8.8-6.9-1.2-15.9c22.1-26.2,44.2-52.4,66.2-78.6c2.3-2.8,4.4-5.8,8-7.3
		C398,160.5,406.6,165.7,406.7,175.2z"/>
	<path class="st0" d="M269,242.8c3.3-10,6.5-19.8,9.6-29.5c8.5-25.9,16.9-51.8,25.5-77.6c3.5-10.4,11.3-15.4,19.1-12.6
		c8.2,3,11.7,11.5,8.4,21.6c-11.2,34.1-22.6,68.1-33.7,102.2c-1.5,4.7-3.5,5.2-7.9,3.4C283.4,247.4,276.4,245.4,269,242.8z
		 M328.6,138c-0.1-6-3.2-10.4-8-11.6c-1.4-0.3-2.8,0-3.4,1.2c-0.3,0.7,0,2.4,0.5,2.6c7.9,4.1,5.3,10.2,3.3,16.3
		c-7,21.4-14,42.9-21,64.3c-0.9,2.8-1.9,5.7-2.7,8.5c-0.4,1.4-0.1,2.8,1.2,3.4c2,1.1,3-0.4,3.8-1.9c0.7-1.5,1.2-3.1,1.7-4.7
		c7.6-23.3,15.3-46.7,22.9-70C327.7,143.6,328.8,140.7,328.6,138z"/>
	<path class="st0" d="M271.6,287.1c1.2,0.9,2.4,1.7,3.6,2.6c-0.6,0.6-1.2,1.3-1.8,1.9c-1.2-0.7-2.4-1.4-3.6-2.2
		C270.3,288.7,271,287.9,271.6,287.1z"/>
	<path class="st2" d="M192.9,313.8c-0.2-4.4,0.9-8.6,2.1-12.8c0.7-2.6,2.1-5.3,5.6-4.2c2.9,0.9,2.7,3.7,2,5.9
		c-2.9,9.4-1.4,18.5,1.3,27.5c3.6,11.7,9.9,21.8,19.7,29.3c1.1,0.8,2.1,1.6,3.2,2.4c1.7,1.4,2.6,3.3,1.3,5.2
		c-1.6,2.4-3.9,2.1-6.1,0.8c-1.7-1-3.3-2.2-4.8-3.5C201.4,351.2,194,334,192.9,313.8z"/>
	<path class="st2" d="M269.7,289.4c1.2,0.7,2.4,1.4,3.6,2.2c3.3,4.3,6.3,8.6,3.5,14.4c-0.6,1.3-1.7,2.2-3.1,1.6
		c-0.7-0.3-1.5-1.6-1.4-2.3c0.9-5.3-2-8.3-5.5-11.7C264.3,291,267.2,289.8,269.7,289.4z"/>
	<path class="st2" d="M328.6,138c0.2,2.7-0.9,5.5-1.8,8.4c-7.6,23.3-15.3,46.7-22.9,70c-0.5,1.6-1,3.2-1.7,4.7
		c-0.7,1.5-1.8,3-3.8,1.9c-1.3-0.7-1.6-2-1.2-3.4c0.9-2.8,1.8-5.7,2.7-8.5c7-21.4,14-42.9,21-64.3c2-6.1,4.6-12.2-3.3-16.3
		c-0.5-0.3-0.8-2-0.5-2.6c0.6-1.3,2-1.6,3.4-1.2C325.4,127.6,328.6,132,328.6,138z"/>
	<path class="st2" d="M357,285.5L357,285.5c-1.6-1.5-1.7-4-0.2-5.7l46.9-51c1.5-1.6,4-1.7,5.7-0.2l0,0c1.6,1.5,1.7,4,0.2,5.7
		l-46.9,51C361.2,286.9,358.6,287,357,285.5z"/>
</g>
</svg>
