<?xml version="1.0" encoding="utf-8"?>
<!-- Generator: Adobe Illustrator 22.1.0, SVG Export Plug-In . SVG Version: 6.00 Build 0)  -->
<svg version="1.1" id="Layer_1" xmlns="http://www.w3.org/2000/svg" xmlns:xlink="http://www.w3.org/1999/xlink" x="0px" y="0px"
	 viewBox="0 0 612 511.8" style="enable-background:new 0 0 612 511.8;" xml:space="preserve">
<style type="text/css">
	.st0{fill:#8D9AFC;}
</style>
<title>7083c3658678335b0333e24bc3e</title>
<path class="st0" d="M361.8,167.5c8.4,5.6,14.6,13,17.4,22.9c0.5,1.9,0.4,3.6,1.3,5.8c0.8,7,3.5,8.1,8.5,9.8
	c19.4,6.6,38.7,13.1,57.9,20.2c16.5,6.1,27.9,16.9,29.2,35.5c0.8,11.1-3.1,20.9-10.9,29.8c5,1.6,9.6,3.4,14.3,4.4
	c31.4,6.7,43,46,16.7,68.5c13.4,14.8,16.8,31.4,6.2,48.8c-9.4,15.6-24.4,20.2-42.2,17.2c-0.3,4.3,0,8.6-0.9,12.8
	c-4.5,23.2-27.7,36.5-50.2,29.1l-112.3-37c-1.5-0.5-3.1-0.9-5-1.5c-0.4,1.5-0.8,2.7-1.1,4c-6.1,22.9-28.5,35.5-50.9,28
	c-40-13.4-79.9-27.4-119.9-40.7c-30.6-10.2-52.7-30.4-69.8-56.8c-36.2-55.9-30.9-127.7,13.9-177c8.1-8.9,12.3-17.8,14.4-29.6
	c10.7-62.2,59.4-111,121.8-120.2c46.4-6.8,90.7,1.3,129.6,29.5c14.3,10.4,26,23.6,33.4,39.8C372,129.6,374.3,148.7,361.8,167.5z
	 M186.4,229c-13,13.4-28.7,17.3-46.6,12.7c-2.8-0.8-5.3-2.5-7.2-4.8c-2.5-3.1-2.2-7,0.1-10.3c2.5-3.7,6.1-4.5,10.5-4.1
	c5.6,0.6,11.4,1.6,16.7,0.5c11.9-2.5,20-15,20.2-29.4c0.3-18.1,0.7-36.3,1-54.4c0.1-6.4,3.9-10.4,9.6-10.5s9.6,3.9,9.7,10.4
	c0,7.3-0.2,14.6-0.4,22c-0.3,15.1-0.8,30.3-0.9,45.4c0,10.4,7.5,18.2,17.1,18.5c10.3,0.4,17.9-6.5,18.8-17.2
	c0.4-4.6,0.5-9.3,0.7-13.9c0.7-22.5,1.4-44.9,2.1-67.4c0.4-14.1,1.4-28.3-2.8-42.2c-3.1-10.3-9.2-17.8-20-20.3
	c-10-2.3-20.2-2.5-30.1,0.6c-18.7,5.7-35.8,15.9-49.6,29.8c-31.1,30.8-43.8,68.3-39.5,111.7c3.6,36.8,22.8,62.4,56.6,77
	c8.7,3.9,18.2,5.8,27.8,5.4c0.2-10.7,3.4-20,10.4-27.8c0.7-0.8,0.5-2.6,0.5-4c-0.2-5.6-1.6-11.4-0.6-16.8
	C191.5,235,190.3,231.9,186.4,229z M75.9,206.8c-2.1,2.6-3.6,4.3-5,6.2c-30.6,40.7-33.6,95.5-7.2,140c12.7,21.4,28.4,40.6,52.4,49.4
	c43.5,16,87.6,30.5,131.5,45.4c9.1,3.1,18.5-1.9,23-11.1c4.1-8.4,2-16-6.3-22.1c-2.2-1.5-4.5-2.7-7.1-3.5
	c-24.1-8.1-48.3-16.1-72.4-24c-11.4-3.8-13-11.2-4.4-19.5c8.8-8.5,14.4-18.7,15.3-31.1c0.7-9.7-0.9-19-8.6-26
	c-1.3-1.3-3-2.1-4.8-2.4c-4.8-0.4-9.7,0-14.4-0.6c-32.7-3.8-77.8-33-88-80.9C78.6,220.3,77.3,214,75.9,206.8z M202.1,372.3
	c21,7,41.1,13.8,61.4,20.3c8.9,2.9,15.8,8.2,21.6,15.4c1.9,2.4,4.5,4.2,7.3,5.2c13.2,4.6,26.5,8.9,39.8,13.3
	c27.6,9.1,55.3,18.3,82.9,27.4c5.9,2,11.5,1.6,16.8-1.8c6.4-4.1,9.7-10.2,9-17.8c-0.9-8.1-5.3-13.9-13.2-16.5
	c-23-7.7-46.1-15.3-69.2-22.9c-31.1-10.3-62.2-20.6-93.3-30.8c-4.1-1.4-7.2-3.5-8-7.9c-1.5-8.1,5.5-13.2,14.3-10.3
	c41.1,13.5,82.2,26.9,123.2,40.6c23.3,7.8,46.3,16.5,69.5,24.5c10.3,3.5,20.6-2,24-12.1c3.3-9.9-1.9-20.5-12.2-24
	c-6-2-12.2-3.3-18.2-5.3c-46-15.4-92-31-138.1-46.4c-1.8-0.6-4,0-6,0.5c-6.1,1.3-12.2,3.8-18.3,3.9c-17.1,0-34.3-1.1-51.4-1.5
	c-9.6-0.2-19.2,0-29.2,0C216.4,342.5,212.6,358,202.1,372.3z M257,124.2V159c24.8,0.8,49.7,1.6,74.6,2.3
	c10.3,0.3,18.1-6.8,19.1-17.1c1.4-14.3-4.2-26.3-12.5-37.4c-17.6-23.6-42-36.2-69.9-42.9c-7.8-1.8-15.7-3-23.5-4.4
	c9.4,13.6,11.6,28.5,12.9,44.8c8.3,0,16.2-0.1,24.2,0c9.1,0.1,18.3,0.3,27.5,0.7c6.4,0.2,10.8,4.6,10.6,10.2s-5.1,9.7-11.4,9.4
	c-3-0.2-6-0.5-8.9-0.5C285.7,124.1,271.8,124.2,257,124.2z M330.1,305.9c0.8,0.3,1.8,0.8,2.9,1.1c45.3,15,90.6,30,135.9,45
	c7.3,2.4,15.4-0.9,19.7-7.9c5.6-8.8,3-20.5-5.8-26.1c-1.5-1-3.1-1.7-4.8-2.2c-20.3-6.4-40.8-12.2-61-18.6
	c-20.6-6.6-41-13.6-61.6-20.2c-1.7-0.5-4.1-0.9-5.5-0.1c-5.9,3.2-11.5,6.9-17.3,10.3C331.9,292.9,331,299.1,330.1,305.9z
	 M253.6,220.9c-0.4-0.2-0.1,0,0.2,0.1c29.4,1,58.8,2.1,88.3,2.9c11.5,0.3,19.8-8.8,19.8-21c0-11.9-8.1-20.5-19.6-20.8
	c-18-0.5-35.9-1.2-53.9-1.6c-10.8-0.2-21.5-0.1-32.6-0.1C255.1,193.6,254.3,207.1,253.6,220.9L253.6,220.9z M457.7,263.7
	c-1.1-3.1-1.5-6.9-3.6-9c-3.7-3.8-8-7.8-12.8-9.7c-18.1-7-36.6-13.1-55-19.5c-8.6-3-8.6-3-14.5,4.1c-0.5,0.6-1.1,1.3-1.6,1.9
	c-6.9,7.6-7.6,9.3-8.4,19.9c-0.1,1.3-0.8,2.8-0.5,3.9c0.4,1.4,1.3,3.4,2.4,3.8c22.9,7.6,45.7,15.3,68.8,22.4
	C445.8,285.6,456.9,277.2,457.7,263.7z M209.5,243.8c-1.2,12.6,7,20.6,20.8,20.9c15.8,0.4,31.6,0.8,47.4,1.3
	c15.5,0.4,30.9,1.1,46.4,1.3c9.7,0.3,17.9-7.3,18.3-17c0-0.3,0-0.5,0-0.8c0-4.2-1.1-6.4-6.2-6.5c-26.8-0.6-53.6-1.7-80.3-2.5
	c-7-0.2-14.4-1.7-20.8,0.2C226.6,243,218.6,245.6,209.5,243.8z M203.7,275.4c-4.6,7.6-5.2,14.7-1.7,22c3.4,7,9.4,8.4,16.6,8.5
	c25.6,0.5,51.3,1.3,76.9,2.2c9.1,0.4,16.8-6.8,17.2-15.9c0.1-1.9-0.2-3.8-0.7-5.5c-0.6-0.1-1.2-0.2-1.9-0.3
	c-24.8-0.8-49.6-1.7-74.4-2.3C224.5,283.9,213.4,283.6,203.7,275.4z"/>
<path class="st0" d="M483.1,167.1c-6.4,0.1-10.5-3.3-11-8.4c-0.6-5.2,2.4-9.5,8.1-10.8c20.8-4.7,41.6-9.3,62.3-14l29.7-6.7
	c1.3-0.3,2.6-0.5,3.9-0.7c5.8-0.6,10.1,2.3,11.1,7.6c1.1,5.4-1.9,10.2-7.7,11.6c-10.3,2.5-20.8,4.7-31.1,7
	c-20.6,4.6-41.3,9.2-61.9,13.7C485.1,166.8,483.6,167,483.1,167.1z"/>
<path class="st0" d="M529.4,69.9c0,0.2,0,0.4,0,0.7c-0.1,2.8-2.3,5.1-4.3,7.1c-20.6,19.6-43.4,37.3-65.2,55.6
	c-4.5,3.8-10.3,3.3-13.9-0.8s-3.3-10.3,1.3-14.2c21.7-18.4,43.5-36.8,65.3-55.1C518.2,58.4,529.1,61.8,529.4,69.9z"/>
<path class="st0" d="M482.5,187.8c3.8,0.9,8.6,2,13.5,3.1c20.4,4.8,40.8,9.5,61.2,14.4c2.3,0.5,4.4,1.5,6.3,2.8
	c3.5,2.6,4.3,7.9,2.3,11.8s-6.3,6-11.5,4.9c-6.7-1.4-13.3-3.1-19.9-4.7l-53-12.4c-1.1-0.2-2.3-0.5-3.4-0.9
	c-4.6-1.6-7.3-6.4-6.3-11.1C472.7,190.8,476.4,187.8,482.5,187.8z"/>
</svg>
