<?xml version="1.0" encoding="utf-8"?>
<!-- Generator: Adobe Illustrator 22.1.0, SVG Export Plug-In . SVG Version: 6.00 Build 0)  -->
<svg version="1.1" id="Layer_1" xmlns="http://www.w3.org/2000/svg" xmlns:xlink="http://www.w3.org/1999/xlink" x="0px" y="0px"
	 viewBox="0 0 350 350" style="enable-background:new 0 0 350 350;" xml:space="preserve">
<style type="text/css">
	.st0{fill:#F9F1F2;}
	.st1{fill:#F6AD40;}
	.st2{fill:#0E0B08;}
</style>
<g>
	<polygon class="st0" points="202,255.7 209.5,265.7 219.8,257.8 290.7,131.6 283.7,126.4 	"/>
	<path class="st0" d="M62,229.5c0.8-10,2.1-19.5,6.6-28.3c0.9-1.8,1.9-3.5,3.2-5c1.2-1.3,3.1-1.4,4.6-0.4c1.1,0.7,1.7,2.2,1.3,3.5
		c-0.7,2.2-1.6,4.4-2.5,6.5c-5.4,12.3-6.1,25-3.1,38c1.5,6.6,4.4,12.5,9.3,17.3c1.8,1.8,2.5,4,0.3,6.1c-2.3,2.2-4.3,0.9-6.1-0.7
		c-3-2.7-5.3-5.9-7.2-9.5C64,248.3,62.9,238.8,62,229.5z"/>
	<path class="st0" d="M129.7,231.8c0.2-16.9-8.2-28.1-24.4-32.5c-1.7-0.5-3.5-0.8-3.5-2.8c0-2.6,2.3-2.9,4.3-2.9
		c4.5,0,8.5,1.7,12.1,4.1c12.4,8.7,17.9,20.9,17.1,35.9c-0.1,1.3-0.3,2.6-0.8,3.9c-0.6,1.6-1.5,3.1-3.6,2.5c-1.5-0.5-1.6-2-1.5-3.3
		C129.5,235.1,129.6,233.5,129.7,231.8z"/>
	<path class="st1" d="M276.7,161.9l15.5-22.5l-4.5-1.1c1.2-2.2,2.2-4.4,3-6.8c2.3-6.5,0-12.5-5.6-15.4c-5.2-2.7-11-1.3-15,4
		c-2.6,3.4-4.7,7.3-6.8,11c-11.5,19.9-23,39.8-34.5,59.7c-1.2,2-2.2,4.1-3.6,6c-2.3,3.1-5.5,3.9-8.8,1.9c-3-1.8-3.4-4.8-2.1-7.9
		c0.9-2.1,2.2-4.1,3.3-6.1c18.4-31.6,36.2-63.6,55.7-94.6c1.4-2.3,3-4.5,3.9-6.9c3-8-1.9-16.4-10.1-17c-6.1-0.5-9.5,3.4-12.4,8.4
		c-15.7,27.5-31.6,54.8-47.4,82.2c-1.3,2.3-2.6,4.7-4.1,6.9c-2,3.1-4.8,4.8-8.5,3c-4.1-2.1-4.1-5.7-2.5-9.4c0.8-1.8,2-3.5,3-5.2
		c7.5-13,15-26,22.5-39c10.5-18.2,21-36.3,31.5-54.5c2.3-4,3.4-8,1.5-12.4c-1.9-4.2-5.1-6.9-10-7.2c-5.1-0.4-8.9,1.6-11.8,5.9
		c-4.7,6.9-7.4,14.9-11.6,22.1c-17,29.4-34,58.8-51,88.2c-1.2,2-2.3,4.1-3.7,5.9c-2.1,2.7-5,3.2-8,1.5c-3.1-1.8-3.7-4.7-2.5-7.8
		c1.1-2.8,2.7-5.3,4.2-7.9c16-27.7,32-55.4,48-83.1c1.5-2.6,3.1-5.1,4.3-7.9c2.6-6.3,0.5-12.5-4.9-15.6c-5-2.8-11.4-1.6-15.4,2.9
		c-1.3,1.5-2.3,3.3-3.3,5c-12.8,22.2-25.7,44.4-38.5,66.6c-1.3,2.3-3.3,4.4-2.9,7.3c1.3,10-3.6,18-8.4,26.1
		c-5.3,9.1-10.5,18.3-15.7,27.3c1.1,0.8,1.4,1.1,1.7,1.2c32.9,9.4,37.8,46.8,29.1,70.7c-1.4,3.8-3.8,6.6-8.2,5.2
		c-4.3-1.3-5.1-4.8-4-8.9c0.8-3.2,1.8-6.4,2.5-9.7c4-19.5-4.8-45.3-31.1-46.4c-7.6-0.3-9.3-4.2-5.6-10.9c7.3-13.1,14.9-26,22.4-39
		c1.7-2.9,3.5-5.7,4.2-9c1.6-7.6-2.5-13.2-10.2-13.9c-6-0.6-10.1,1.9-13.1,7.1c-14.5,25.1-29.4,50-42.4,75.9
		c-2.4,4.8-4.2,9.8-5.1,15.1c-8.8,51.6,29.9,103.4,89.4,98.1c22.9-2,42.3-11.5,56.4-30.2c6.2-8.3,11.6-17.1,16-26.4l0,0
		c10.8-16.9,20.7-34.3,29.9-52l0,0c5.9-9,11.1-18.5,15.9-28.2l0,0c1.9-3.4,3.8-6.7,5.7-10.1l0,0c0.8-1.1,1.6-2.3,2.3-3.4
		L276.7,161.9z M81.8,267.2c-2.3,2.2-4.3,0.9-6.1-0.7c-3-2.7-5.3-5.9-7.2-9.5c-4.6-8.8-5.7-18.3-6.5-27.5c0.8-10,2.1-19.5,6.6-28.3
		c0.9-1.8,1.9-3.5,3.2-5c1.2-1.3,3.1-1.4,4.6-0.4c1.1,0.7,1.7,2.2,1.3,3.5c-0.7,2.2-1.6,4.4-2.5,6.5c-5.4,12.3-6.1,25-3.1,38
		c1.5,6.6,4.4,12.5,9.3,17.3C83.3,262.9,84,265.1,81.8,267.2z M135.3,233.7c-0.1,1.3-0.3,2.6-0.8,3.9c-0.6,1.6-1.5,3.1-3.6,2.5
		c-1.5-0.5-1.6-2-1.5-3.3c0-1.7,0.2-3.3,0.3-5c0.2-16.9-8.2-28.1-24.4-32.5c-1.7-0.5-3.5-0.8-3.5-2.8c0-2.6,2.3-2.9,4.3-2.9
		c4.5,0,8.5,1.7,12.1,4.1C130.6,206.5,136.1,218.7,135.3,233.7z M271,162.8c-0.1-0.1-0.2-0.2-0.3-0.3c-2.5,3.1-4.4,6.5-5.8,10.1l0,0
		c-5.9,9-11.3,18.3-16.1,27.9l0,0c-10.4,17.1-20.6,34.3-29.9,52.1l0,0c-1.5,2.2-2.9,4.4-4.5,6.5c-0.8,1.1-1.9,2.1-3.3,1.4
		c-1.8-0.9-1.6-2.7-1-4.3c0.4-1.2,1.2-2.4,1.8-3.5c22.1-38.5,44.3-77,66.4-115.5c0.5-0.9,1-1.8,1.5-2.5c1.2-1.6,2.5-3.7,4.7-2.3
		c2.1,1.4,0.9,3.5,0,5.3c-0.8,1.5-1.4,3-2.1,4.5c-0.4,0.8-0.9,1.7-1.3,2.5l0.1,0.1l-0.1-0.1c-0.8,1.3-1.6,2.5-2.4,3.8
		c0.1,0.1,0.1,0.1,0.2,0.2l0,0c-0.1-0.1-0.1-0.1-0.2-0.2c-0.7,1.3-1.4,2.5-2.1,3.8v0.1c-1.9,3.4-3.9,6.8-5.8,10.2
		C270.8,162.6,270.9,162.7,271,162.8z"/>
	<path class="st2" d="M218.9,36.2c4.6-5.4,9.8-8.7,16.3-10c13.5-2.7,26.4,6.4,28.7,21c0.7,4.4,2,5.7,6.5,6.6
		c18.3,3.8,25.9,21.3,17.1,37.7c-1.6,2.9-3.4,5.7-5,8.5c0.9,3,3.6,2.6,5.6,3.5c14.2,5.9,19.9,19.1,14.5,33.6
		c-0.7,1.9-1.6,3.7-2.6,5.4c-25.5,46-50.9,92-77.9,137.1c-14.3,23.8-35,38.2-61.9,43.1c-62.9,11.5-110.4-32.9-114.3-88
		c-1.2-17,1.9-33,10.2-48.1C69,162.9,82.2,139.5,96,116.3c8.2-13.9,20-17.9,34.8-11.1c4.6,2.1,6.2,1.3,8.4-2.6
		c12-21.1,24-42.2,36.4-63.1c7.9-13.5,22.7-17.5,35.1-9.8C213.3,31.2,215.7,33.6,218.9,36.2z M290.7,131.6c2.3-6.5,0-12.5-5.6-15.4
		c-5.2-2.7-11-1.3-15,4c-2.6,3.4-4.7,7.3-6.8,11c-11.5,19.9-23,39.8-34.5,59.7c-1.2,2-2.2,4.1-3.6,6c-2.3,3.1-5.5,3.9-8.8,1.9
		c-3-1.8-3.4-4.8-2.1-7.9c0.9-2.1,2.2-4.1,3.3-6.1c18.4-31.7,36.2-63.7,55.7-94.7c1.4-2.3,3-4.5,3.9-6.9c3-8-1.9-16.4-10.1-17
		c-6.1-0.5-9.5,3.4-12.4,8.4c-15.7,27.5-31.6,54.8-47.4,82.2c-1.3,2.3-2.6,4.7-4.1,6.9c-2,3.1-4.8,4.8-8.5,3
		c-4.1-2.1-4.1-5.7-2.5-9.4c0.8-1.8,2-3.5,3-5.2c7.5-13,15-26,22.5-39c10.5-18.2,21-36.3,31.5-54.5c2.3-4,3.4-8,1.5-12.4
		c-1.9-4.2-5.1-6.9-10-7.2c-5.1-0.4-8.9,1.6-11.8,5.9c-4.7,6.9-7.4,14.9-11.6,22.1c-17,29.4-34,58.8-51,88.2c-1.2,2-2.3,4.1-3.7,5.9
		c-2.1,2.7-5,3.2-8,1.5c-3.1-1.8-3.7-4.7-2.5-7.8c1.1-2.8,2.7-5.3,4.2-7.9c16-27.7,32-55.4,48-83.1c1.5-2.6,3.1-5.1,4.3-7.9
		c2.6-6.3,0.5-12.5-4.9-15.6c-5-2.8-11.4-1.6-15.4,2.9c-1.3,1.5-2.3,3.3-3.3,5c-12.8,22.2-25.7,44.4-38.5,66.6
		c-1.3,2.3-3.3,4.4-2.9,7.3c1.3,10-3.6,18-8.4,26.1c-5.3,9.1-10.5,18.3-15.7,27.3c1.1,0.8,1.4,1.1,1.7,1.2
		c32.9,9.4,37.8,46.8,29.1,70.7c-1.4,3.8-3.8,6.6-8.2,5.2c-4.3-1.3-5.1-4.8-4-8.9c0.8-3.2,1.8-6.4,2.5-9.7
		c4-19.5-4.8-45.3-31.1-46.4c-7.6-0.3-9.3-4.2-5.6-10.9c7.3-13.1,14.9-26,22.4-39c1.7-2.9,3.5-5.7,4.2-9c1.6-7.6-2.5-13.2-10.2-13.9
		c-6-0.6-10.1,1.9-13.1,7.1c-14.5,25.1-29.4,50-42.4,75.9c-2.4,4.8-4.2,9.8-5.1,15.1c-8.8,51.6,29.9,103.4,89.4,98.1
		c22.9-2,42.3-11.5,56.4-30.2c6.2-8.3,11.6-17.1,16-26.4c10.8-16.9,20.7-34.3,29.9-52c5.9-9,11.1-18.5,15.9-28.2
		c1.9-3.4,3.8-6.7,5.7-10.1C275,161,289.2,135.9,290.7,131.6z"/>
</g>
</svg>
