<?xml version="1.0" encoding="utf-8"?>
<!-- Generator: Adobe Illustrator 22.1.0, SVG Export Plug-In . SVG Version: 6.00 Build 0)  -->
<svg version="1.1" id="Layer_1" xmlns="http://www.w3.org/2000/svg" xmlns:xlink="http://www.w3.org/1999/xlink" x="0px" y="0px"
	 viewBox="0 0 350 350" style="enable-background:new 0 0 350 350;" xml:space="preserve">
<style type="text/css">
	.st0{fill:#BA1F2D;}
	.st1{fill:#0B0607;}
	.st2{fill:#F9F1F2;}
	.st3{fill:#FEFEFE;}
</style>
<g>
	<g>
		<polygon class="st0" points="118.7,179 149.7,63.2 164.7,36.9 175,36.9 183.3,36.9 189.7,46.6 191.7,61.2 170.3,160.2 
			199.3,136.2 245.7,81.6 258.7,79.9 267.9,83.2 271.7,94.9 265.3,113.6 227.1,160.9 202.3,192.2 188.7,201.3 182.3,209.1 
			170.3,193.6 160.7,187.2 145.7,188.9 135.7,187.2 123.7,181.9 		"/>
		<polygon class="st0" points="118.7,179 149.7,63.2 164.7,36.9 175,36.9 183.3,36.9 189.7,46.6 191.7,61.2 170.3,160.2 
			199.3,136.2 245.7,81.6 258.7,79.9 267.9,83.2 271.7,94.9 265.3,113.6 227.1,160.9 202.3,192.2 188.7,201.3 182.3,209.1 
			170.3,193.6 160.7,187.2 145.7,188.9 135.7,187.2 123.7,181.9 		"/>
	</g>
	<path class="st1" d="M181.2,142.6c9.1-10.1,18.2-20.3,27.3-30.4c9.3-10.4,18.6-20.9,28-31.3c6.5-7.1,14.6-10.5,24.3-8.7
		c19.1,3.7,26.4,25.8,13.6,41.4c-9.3,11.3-19.1,22.3-28.6,33.4c-5.2,6-10.3,12.1-16.2,19.1c10.9,4.4,17.2,11.8,18.1,23
		c0.2,2.3,1.8,2.4,3.5,2.6c2,0.3,3.9,0.7,5.8,1.4c14.7,5.1,20.9,21.5,13.1,35c-1.5,2.6-3.4,5-5.4,7.2c-7.2,8-12,16.5-15,27.3
		c-9.3,33.7-34.2,51.7-67,58.4c-52,10.6-102.1-24-112-76.3c-3.2-16.9-0.9-33.3,7.4-48.4c6-11,14.5-19.4,27.4-21.2
		c6.1-0.9,8.1-4,9.6-9.3c11.4-39.6,23.1-79.2,34.5-118.8c2.9-10.1,8.9-17.2,19.3-19.6c17.9-4,33.5,11.2,29.9,29.4
		c-3.7,17.9-7.9,35.7-11.9,53.6c-2.3,10.4-4.6,20.7-7,31.1C180.3,141.9,180.7,142.3,181.2,142.6z M267.6,98.1
		c1.5-7.7-4.4-13.3-12.4-13.1c-5.3,0.2-8.4,3.6-11.5,7.1c-22.1,24.5-44.1,49-66.1,73.6c-5.3,5.9-8.7,7.7-12.4,5.5
		c-5.4-3.1-3.4-7.9-2.3-12.4c7.4-32.8,14.7-65.5,22.1-98.3c2.6-11.7-0.1-18.9-7.9-20.7c-7.4-1.7-12.7,3-15.9,14
		c-7.5,25.5-15.1,51-22.6,76.6c-4.3,14.6-8.4,29.2-12.8,44.3c7.7,1.8,14.4,3.5,21.2,5.1c13.7,3.1,27.5,6.1,35.1,21.5
		c8.7-10.5,16.3-19.7,23.8-28.9C207,171,266.5,104,267.6,98.1z M255.9,224.2c3-4.8,4-9.8,0.6-14.8c-5.8-5.7-11.6-6.1-16.7-0.2
		c-10.7,12.3-21.1,24.9-31.3,37.6c-4.4,5.5-3.8,12.2,0.7,16.2c4.6,4.2,11.9,3.7,17-1.5c3-3.1,5.8-6.5,8.3-10
		C241.4,242.2,250.5,234.6,255.9,224.2z M110.6,285.6c-1.4,4.2,1.9,6.1,4.4,8c33.4,25.7,82.6,20.9,109.4-9.9
		c1.3-1.5,3.8-2.9,2.1-5.9c-1,0-2-0.1-2.9,0c-16.4,2.6-25.6-2.8-30.1-18.4c-1.3-4.5-3.5-6.6-7.9-7.5c-7.7-1.6-12.8-6.5-16.5-13.3
		c-1-1.8-0.8-4.9-4.8-4.7c-0.9,3.7,1.3,7,2.1,10.2c3.1,12.8-1.1,23.6-8.5,33.6c-2.4,3.2-5.7,5.1-9.5,2.4c-3.7-2.6-3.4-6.1-1.1-9.6
		c1.8-2.8,3.7-5.6,5-8.6c5.9-14.6,0-25.5-15.2-28.6c-5.9-1.2-11.7-2.5-17.5-4.1c-3.4-1-6.1-3.3-5.4-7.3c0.7-4.1,3.9-4.9,7.6-4.8
		c6,0.2,11.8,2.2,17.6,3.5c5.9,1.3,11.9,2.1,17.8,1c6.3-1.2,11.8-6.7,12.4-11.6c0.7-5.5-2.7-11-10-13.2c-14.9-4.7-29.9-9-45.7-9.5
		c-8.8-0.2-15.4,3.3-20.8,9.8c-3,3.6-5.3,7.7-6.9,12.1c-9.1,26-2.5,49,13.9,70c1.8,2.3,3.7,4.9,7.4,3.6
		C108.6,283.7,109.6,284.7,110.6,285.6z M222.6,179c-2.5,0.1-5.5,0.5-7.6,3c-11.1,13.2-22.2,26.5-33.3,39.8
		c-0.6,0.7-1.1,1.7-1.4,2.6c-1.5,4.5-0.7,8.5,2.7,11.9c3.8,3.7,8.1,4.3,12.9,2.3c2.9-1.2,4.8-3.5,6.7-5.8c6.4-7.7,12.8-15.3,19.2-23
		c3.6-4.3,7.6-8.4,10.7-13.2C237.8,188.5,232.6,179,222.6,179z"/>
	<path class="st0" d="M107.5,282.7c-3.7,1.3-5.7-1.4-7.4-3.6c-16.4-21-23-44-13.9-70c1.5-4.4,3.8-8.5,6.9-12.1
		c5.4-6.5,12-10.1,20.8-9.8c15.8,0.4,30.8,4.8,45.7,9.5c7.3,2.3,10.7,7.8,10,13.2c-0.6,5-6.1,10.4-12.4,11.6c-6,1.2-11.9,0.3-17.8-1
		c-5.8-1.3-11.5-3.3-17.6-3.5c-3.6-0.1-6.9,0.7-7.6,4.8c-0.7,4,2,6.3,5.4,7.3c5.8,1.6,11.6,2.9,17.5,4.1
		c15.2,3.1,21.2,14.1,15.2,28.6c-1.2,3-3.2,5.8-5,8.6c-2.3,3.6-2.6,7,1.1,9.6c3.8,2.7,7.1,0.8,9.5-2.4c7.4-10,11.6-20.8,8.5-33.6
		c-0.8-3.3-3-6.5-2.1-10.2c3.9-0.2,3.8,2.9,4.8,4.7c3.7,6.8,8.8,11.7,16.5,13.3c4.4,0.9,6.6,3,7.9,7.5c4.5,15.5,13.7,20.9,30.1,18.4
		c0.9-0.1,1.9,0,2.9,0c1.7,3-0.7,4.4-2.1,5.9c-26.9,30.8-76.1,35.6-109.4,9.9c-2.5-1.9-5.8-3.8-4.4-8c3.7,2.2,7.4,4.4,11.1,6.6
		c2,1.2,3.9,0.8,5.2-1.1c1.3-1.9,0.7-3.8-1.1-5.3c-0.8-0.6-1.6-1.2-2.4-1.7c-15.2-9.9-22.8-24.6-26.5-41.8
		c-1.6-7.3-1.5-14.5-0.9-21.8c0.2-2.4,0.2-4.9-3.1-5.2c-2.9-0.2-4,2-4.6,4.3c-0.4,1.9-0.6,4-0.6,5.9c-0.6,17.1,3.9,32.9,13.1,47.3
		C103,276.3,106.2,278.8,107.5,282.7z"/>
	<path class="st0" d="M222.6,179c10,0.1,15.2,9.5,9.9,17.7c-3,4.7-7.1,8.8-10.7,13.2c-6.4,7.7-12.8,15.3-19.2,23
		c-1.9,2.3-3.9,4.6-6.7,5.8c-4.7,2-9.1,1.4-12.9-2.3c-3.5-3.4-4.2-7.4-2.7-11.9c0.3-0.9,0.8-1.9,1.4-2.6
		c11.1-13.3,22.1-26.6,33.3-39.8C217.1,179.5,220.2,179.1,222.6,179z"/>
	<path class="st0" d="M255.9,224.2c-5.4,10.5-14.6,18-21.4,27.3c-2.6,3.5-5.3,6.9-8.3,10c-5.1,5.2-12.4,5.7-17,1.5
		c-4.4-4-5.1-10.8-0.7-16.2c10.2-12.7,20.7-25.2,31.3-37.6c5.1-5.9,10.9-5.5,16.7,0.2c-6.7-0.7-7.3-0.3-4.8,4
		c1.7,2.9,1.2,4.7-0.5,6.9c-1,1.3-2.1,2.7-0.6,4.3C252.5,226.5,254.2,224.6,255.9,224.2z"/>
	<path class="st2" d="M107.5,282.7c-1.3-3.9-4.6-6.5-6.7-9.8c-9.2-14.4-13.7-30.2-13.1-47.3c0.1-2,0.2-4,0.6-5.9
		c0.5-2.3,1.7-4.6,4.6-4.3c3.3,0.3,3.3,2.8,3.1,5.2c-0.6,7.3-0.7,14.6,0.9,21.8c3.7,17.2,11.3,31.9,26.5,41.8
		c0.8,0.5,1.7,1.1,2.4,1.7c1.7,1.5,2.4,3.3,1.1,5.3c-1.3,1.9-3.2,2.3-5.2,1.1c-3.7-2.2-7.4-4.4-11.1-6.6
		C109.6,284.7,108.6,283.7,107.5,282.7z"/>
	<path class="st2" d="M255.9,224.2c-1.8,0.4-3.5,2.3-5.3,0.4c-1.5-1.6-0.4-3,0.6-4.3c1.7-2.2,2.2-4,0.5-6.9c-2.5-4.4-1.9-4.7,4.8-4
		C259.9,214.4,259,219.4,255.9,224.2z"/>
	<path class="st3" d="M199.2,177.2l62-72c1.4-1.7,1.2-4.2-0.4-5.6l0,0c-1.7-1.4-4.2-1.2-5.6,0.4l-62,72c-1.4,1.7-1.2,4.2,0.4,5.6
		l0,0C195.2,179.1,197.7,178.9,199.2,177.2z"/>
	<path class="st0" d="M104.3,277.4c0,0,6.1,8.1,7.9,9.2c1.8,1.1-0.1,4.7-0.1,4.7s-9.7-9.3-11.1-11.1
		C99.6,278.4,104.3,277.4,104.3,277.4z"/>
</g>
</svg>
